<?xml version="1.0" encoding="UTF-8"?>
<!-- Do not edit this file with editors other than draw.io -->
<!DOCTYPE svg PUBLIC "-//W3C//DTD SVG 1.1//EN" "http://www.w3.org/Graphics/SVG/1.1/DTD/svg11.dtd">
<svg xmlns="http://www.w3.org/2000/svg" xmlns:xlink="http://www.w3.org/1999/xlink" version="1.1" width="710px" height="619px" viewBox="-0.5 -0.5 710 619" content="&lt;mxfile host=&quot;app.diagrams.net&quot; agent=&quot;Mozilla/5.0 (Macintosh; Intel Mac OS X 10_15_7) AppleWebKit/537.36 (KHTML, like Gecko) Chrome/129.0.0.0 Safari/537.36&quot; version=&quot;24.7.17&quot;&gt;&#10;  &lt;diagram name=&quot;Page-1&quot; id=&quot;9ajQ5r7neXBjIoXZaPiU&quot;&gt;&#10;    &lt;mxGraphModel dx=&quot;1063&quot; dy=&quot;770&quot; grid=&quot;1&quot; gridSize=&quot;10&quot; guides=&quot;1&quot; tooltips=&quot;1&quot; connect=&quot;1&quot; arrows=&quot;1&quot; fold=&quot;1&quot; page=&quot;1&quot; pageScale=&quot;1&quot; pageWidth=&quot;850&quot; pageHeight=&quot;1100&quot; math=&quot;0&quot; shadow=&quot;0&quot;&gt;&#10;      &lt;root&gt;&#10;        &lt;mxCell id=&quot;0&quot; /&gt;&#10;        &lt;mxCell id=&quot;1&quot; parent=&quot;0&quot; /&gt;&#10;        &lt;mxCell id=&quot;sIUpnCS8GohBCDPYKKZ9-1&quot; value=&quot;&quot; style=&quot;sketch=0;points=[[0,0,0],[0.25,0,0],[0.5,0,0],[0.75,0,0],[1,0,0],[0,1,0],[0.25,1,0],[0.5,1,0],[0.75,1,0],[1,1,0],[0,0.25,0],[0,0.5,0],[0,0.75,0],[1,0.25,0],[1,0.5,0],[1,0.75,0]];outlineConnect=0;fontColor=#232F3E;fillColor=#E7157B;strokeColor=#ffffff;dashed=0;verticalLabelPosition=bottom;verticalAlign=top;align=center;html=1;fontSize=12;fontStyle=0;aspect=fixed;shape=mxgraph.aws4.resourceIcon;resIcon=mxgraph.aws4.api_gateway;&quot; vertex=&quot;1&quot; parent=&quot;1&quot;&gt;&#10;          &lt;mxGeometry x=&quot;240&quot; y=&quot;420&quot; width=&quot;78&quot; height=&quot;78&quot; as=&quot;geometry&quot; /&gt;&#10;        &lt;/mxCell&gt;&#10;        &lt;mxCell id=&quot;sIUpnCS8GohBCDPYKKZ9-2&quot; value=&quot;&quot; style=&quot;sketch=0;points=[[0,0,0],[0.25,0,0],[0.5,0,0],[0.75,0,0],[1,0,0],[0,1,0],[0.25,1,0],[0.5,1,0],[0.75,1,0],[1,1,0],[0,0.25,0],[0,0.5,0],[0,0.75,0],[1,0.25,0],[1,0.5,0],[1,0.75,0]];outlineConnect=0;fontColor=#232F3E;fillColor=#ED7100;strokeColor=#ffffff;dashed=0;verticalLabelPosition=bottom;verticalAlign=top;align=center;html=1;fontSize=12;fontStyle=0;aspect=fixed;shape=mxgraph.aws4.resourceIcon;resIcon=mxgraph.aws4.lambda;&quot; vertex=&quot;1&quot; parent=&quot;1&quot;&gt;&#10;          &lt;mxGeometry x=&quot;510&quot; y=&quot;180&quot; width=&quot;78&quot; height=&quot;78&quot; as=&quot;geometry&quot; /&gt;&#10;        &lt;/mxCell&gt;&#10;        &lt;mxCell id=&quot;sIUpnCS8GohBCDPYKKZ9-3&quot; value=&quot;&quot; style=&quot;sketch=0;points=[[0,0,0],[0.25,0,0],[0.5,0,0],[0.75,0,0],[1,0,0],[0,1,0],[0.25,1,0],[0.5,1,0],[0.75,1,0],[1,1,0],[0,0.25,0],[0,0.5,0],[0,0.75,0],[1,0.25,0],[1,0.5,0],[1,0.75,0]];outlineConnect=0;fontColor=#232F3E;fillColor=#ED7100;strokeColor=#ffffff;dashed=0;verticalLabelPosition=bottom;verticalAlign=top;align=center;html=1;fontSize=12;fontStyle=0;aspect=fixed;shape=mxgraph.aws4.resourceIcon;resIcon=mxgraph.aws4.lambda;&quot; vertex=&quot;1&quot; parent=&quot;1&quot;&gt;&#10;          &lt;mxGeometry x=&quot;510&quot; y=&quot;340&quot; width=&quot;78&quot; height=&quot;78&quot; as=&quot;geometry&quot; /&gt;&#10;        &lt;/mxCell&gt;&#10;        &lt;mxCell id=&quot;sIUpnCS8GohBCDPYKKZ9-4&quot; value=&quot;&quot; style=&quot;sketch=0;points=[[0,0,0],[0.25,0,0],[0.5,0,0],[0.75,0,0],[1,0,0],[0,1,0],[0.25,1,0],[0.5,1,0],[0.75,1,0],[1,1,0],[0,0.25,0],[0,0.5,0],[0,0.75,0],[1,0.25,0],[1,0.5,0],[1,0.75,0]];outlineConnect=0;fontColor=#232F3E;fillColor=#ED7100;strokeColor=#ffffff;dashed=0;verticalLabelPosition=bottom;verticalAlign=top;align=center;html=1;fontSize=12;fontStyle=0;aspect=fixed;shape=mxgraph.aws4.resourceIcon;resIcon=mxgraph.aws4.lambda;&quot; vertex=&quot;1&quot; parent=&quot;1&quot;&gt;&#10;          &lt;mxGeometry x=&quot;510&quot; y=&quot;500&quot; width=&quot;78&quot; height=&quot;78&quot; as=&quot;geometry&quot; /&gt;&#10;        &lt;/mxCell&gt;&#10;        &lt;mxCell id=&quot;sIUpnCS8GohBCDPYKKZ9-5&quot; value=&quot;&quot; style=&quot;sketch=0;points=[[0,0,0],[0.25,0,0],[0.5,0,0],[0.75,0,0],[1,0,0],[0,1,0],[0.25,1,0],[0.5,1,0],[0.75,1,0],[1,1,0],[0,0.25,0],[0,0.5,0],[0,0.75,0],[1,0.25,0],[1,0.5,0],[1,0.75,0]];outlineConnect=0;fontColor=#232F3E;fillColor=#ED7100;strokeColor=#ffffff;dashed=0;verticalLabelPosition=bottom;verticalAlign=top;align=center;html=1;fontSize=12;fontStyle=0;aspect=fixed;shape=mxgraph.aws4.resourceIcon;resIcon=mxgraph.aws4.lambda;&quot; vertex=&quot;1&quot; parent=&quot;1&quot;&gt;&#10;          &lt;mxGeometry x=&quot;510&quot; y=&quot;660&quot; width=&quot;78&quot; height=&quot;78&quot; as=&quot;geometry&quot; /&gt;&#10;        &lt;/mxCell&gt;&#10;        &lt;mxCell id=&quot;sIUpnCS8GohBCDPYKKZ9-6&quot; value=&quot;&quot; style=&quot;sketch=0;points=[[0,0,0],[0.25,0,0],[0.5,0,0],[0.75,0,0],[1,0,0],[0,1,0],[0.25,1,0],[0.5,1,0],[0.75,1,0],[1,1,0],[0,0.25,0],[0,0.5,0],[0,0.75,0],[1,0.25,0],[1,0.5,0],[1,0.75,0]];outlineConnect=0;fontColor=#232F3E;fillColor=#C925D1;strokeColor=#ffffff;dashed=0;verticalLabelPosition=bottom;verticalAlign=top;align=center;html=1;fontSize=12;fontStyle=0;aspect=fixed;shape=mxgraph.aws4.resourceIcon;resIcon=mxgraph.aws4.dynamodb;&quot; vertex=&quot;1&quot; parent=&quot;1&quot;&gt;&#10;          &lt;mxGeometry x=&quot;700&quot; y=&quot;422&quot; width=&quot;78&quot; height=&quot;78&quot; as=&quot;geometry&quot; /&gt;&#10;        &lt;/mxCell&gt;&#10;        &lt;mxCell id=&quot;sIUpnCS8GohBCDPYKKZ9-7&quot; value=&quot;&quot; style=&quot;sketch=0;points=[[0,0,0],[0.25,0,0],[0.5,0,0],[0.75,0,0],[1,0,0],[0,1,0],[0.25,1,0],[0.5,1,0],[0.75,1,0],[1,1,0],[0,0.25,0],[0,0.5,0],[0,0.75,0],[1,0.25,0],[1,0.5,0],[1,0.75,0]];outlineConnect=0;fontColor=#232F3E;fillColor=#DD344C;strokeColor=#ffffff;dashed=0;verticalLabelPosition=bottom;verticalAlign=top;align=center;html=1;fontSize=12;fontStyle=0;aspect=fixed;shape=mxgraph.aws4.resourceIcon;resIcon=mxgraph.aws4.cognito;&quot; vertex=&quot;1&quot; parent=&quot;1&quot;&gt;&#10;          &lt;mxGeometry x=&quot;240&quot; y=&quot;150&quot; width=&quot;78&quot; height=&quot;78&quot; as=&quot;geometry&quot; /&gt;&#10;        &lt;/mxCell&gt;&#10;        &lt;mxCell id=&quot;sIUpnCS8GohBCDPYKKZ9-8&quot; value=&quot;&quot; style=&quot;aspect=fixed;sketch=0;html=1;dashed=0;whitespace=wrap;verticalLabelPosition=bottom;verticalAlign=top;fillColor=#2875E2;strokeColor=#ffffff;points=[[0.005,0.63,0],[0.1,0.2,0],[0.9,0.2,0],[0.5,0,0],[0.995,0.63,0],[0.72,0.99,0],[0.5,1,0],[0.28,0.99,0]];shape=mxgraph.kubernetes.icon2;prIcon=user&quot; vertex=&quot;1&quot; parent=&quot;1&quot;&gt;&#10;          &lt;mxGeometry x=&quot;70&quot; y=&quot;270&quot; width=&quot;83.33&quot; height=&quot;80&quot; as=&quot;geometry&quot; /&gt;&#10;        &lt;/mxCell&gt;&#10;        &lt;mxCell id=&quot;sIUpnCS8GohBCDPYKKZ9-9&quot; value=&quot;&quot; style=&quot;sketch=0;points=[[0,0,0],[0.25,0,0],[0.5,0,0],[0.75,0,0],[1,0,0],[0,1,0],[0.25,1,0],[0.5,1,0],[0.75,1,0],[1,1,0],[0,0.25,0],[0,0.5,0],[0,0.75,0],[1,0.25,0],[1,0.5,0],[1,0.75,0]];outlineConnect=0;fontColor=#232F3E;fillColor=#7AA116;strokeColor=#ffffff;dashed=0;verticalLabelPosition=bottom;verticalAlign=top;align=center;html=1;fontSize=12;fontStyle=0;aspect=fixed;shape=mxgraph.aws4.resourceIcon;resIcon=mxgraph.aws4.s3;&quot; vertex=&quot;1&quot; parent=&quot;1&quot;&gt;&#10;          &lt;mxGeometry x=&quot;240&quot; y=&quot;610&quot; width=&quot;78&quot; height=&quot;78&quot; as=&quot;geometry&quot; /&gt;&#10;        &lt;/mxCell&gt;&#10;        &lt;mxCell id=&quot;sIUpnCS8GohBCDPYKKZ9-10&quot; value=&quot;&quot; style=&quot;sketch=0;outlineConnect=0;fontColor=#232F3E;gradientColor=none;fillColor=#DD344C;strokeColor=none;dashed=0;verticalLabelPosition=bottom;verticalAlign=top;align=center;html=1;fontSize=12;fontStyle=0;aspect=fixed;pointerEvents=1;shape=mxgraph.aws4.sts;&quot; vertex=&quot;1&quot; parent=&quot;1&quot;&gt;&#10;          &lt;mxGeometry x=&quot;120&quot; y=&quot;120&quot; width=&quot;62.4&quot; height=&quot;40&quot; as=&quot;geometry&quot; /&gt;&#10;        &lt;/mxCell&gt;&#10;        &lt;mxCell id=&quot;sIUpnCS8GohBCDPYKKZ9-11&quot; value=&quot;&quot; style=&quot;edgeStyle=orthogonalEdgeStyle;html=1;endArrow=open;elbow=vertical;startArrow=none;endFill=0;strokeColor=#545B64;rounded=0;exitX=0.5;exitY=0;exitDx=0;exitDy=0;exitPerimeter=0;entryX=0;entryY=0.5;entryDx=0;entryDy=0;entryPerimeter=0;&quot; edge=&quot;1&quot; parent=&quot;1&quot; source=&quot;sIUpnCS8GohBCDPYKKZ9-8&quot; target=&quot;sIUpnCS8GohBCDPYKKZ9-7&quot;&gt;&#10;          &lt;mxGeometry width=&quot;100&quot; relative=&quot;1&quot; as=&quot;geometry&quot;&gt;&#10;            &lt;mxPoint x=&quot;370&quot; y=&quot;450&quot; as=&quot;sourcePoint&quot; /&gt;&#10;            &lt;mxPoint x=&quot;230&quot; y=&quot;230&quot; as=&quot;targetPoint&quot; /&gt;&#10;          &lt;/mxGeometry&gt;&#10;        &lt;/mxCell&gt;&#10;        &lt;mxCell id=&quot;sIUpnCS8GohBCDPYKKZ9-12&quot; value=&quot;&quot; style=&quot;edgeStyle=orthogonalEdgeStyle;html=1;endArrow=block;elbow=vertical;startArrow=none;endFill=1;strokeColor=#545B64;rounded=0;exitX=0.5;exitY=1;exitDx=0;exitDy=0;exitPerimeter=0;entryX=0;entryY=0.5;entryDx=0;entryDy=0;entryPerimeter=0;&quot; edge=&quot;1&quot; parent=&quot;1&quot; source=&quot;sIUpnCS8GohBCDPYKKZ9-8&quot; target=&quot;sIUpnCS8GohBCDPYKKZ9-1&quot;&gt;&#10;          &lt;mxGeometry width=&quot;100&quot; relative=&quot;1&quot; as=&quot;geometry&quot;&gt;&#10;            &lt;mxPoint x=&quot;370&quot; y=&quot;450&quot; as=&quot;sourcePoint&quot; /&gt;&#10;            &lt;mxPoint x=&quot;470&quot; y=&quot;450&quot; as=&quot;targetPoint&quot; /&gt;&#10;          &lt;/mxGeometry&gt;&#10;        &lt;/mxCell&gt;&#10;        &lt;mxCell id=&quot;sIUpnCS8GohBCDPYKKZ9-13&quot; value=&quot;&quot; style=&quot;edgeStyle=orthogonalEdgeStyle;html=1;endArrow=block;elbow=vertical;startArrow=none;endFill=1;strokeColor=#545B64;rounded=0;exitX=0.5;exitY=1;exitDx=0;exitDy=0;exitPerimeter=0;entryX=0.5;entryY=0;entryDx=0;entryDy=0;entryPerimeter=0;&quot; edge=&quot;1&quot; parent=&quot;1&quot; source=&quot;sIUpnCS8GohBCDPYKKZ9-1&quot; target=&quot;sIUpnCS8GohBCDPYKKZ9-9&quot;&gt;&#10;          &lt;mxGeometry width=&quot;100&quot; relative=&quot;1&quot; as=&quot;geometry&quot;&gt;&#10;            &lt;mxPoint x=&quot;370&quot; y=&quot;450&quot; as=&quot;sourcePoint&quot; /&gt;&#10;            &lt;mxPoint x=&quot;470&quot; y=&quot;450&quot; as=&quot;targetPoint&quot; /&gt;&#10;          &lt;/mxGeometry&gt;&#10;        &lt;/mxCell&gt;&#10;        &lt;mxCell id=&quot;sIUpnCS8GohBCDPYKKZ9-14&quot; value=&quot;&quot; style=&quot;edgeStyle=orthogonalEdgeStyle;html=1;endArrow=block;elbow=vertical;startArrow=none;endFill=1;strokeColor=#545B64;rounded=0;exitX=1;exitY=0.5;exitDx=0;exitDy=0;exitPerimeter=0;entryX=0;entryY=0.5;entryDx=0;entryDy=0;entryPerimeter=0;&quot; edge=&quot;1&quot; parent=&quot;1&quot; source=&quot;sIUpnCS8GohBCDPYKKZ9-1&quot; target=&quot;sIUpnCS8GohBCDPYKKZ9-2&quot;&gt;&#10;          &lt;mxGeometry width=&quot;100&quot; relative=&quot;1&quot; as=&quot;geometry&quot;&gt;&#10;            &lt;mxPoint x=&quot;370&quot; y=&quot;450&quot; as=&quot;sourcePoint&quot; /&gt;&#10;            &lt;mxPoint x=&quot;470&quot; y=&quot;450&quot; as=&quot;targetPoint&quot; /&gt;&#10;          &lt;/mxGeometry&gt;&#10;        &lt;/mxCell&gt;&#10;        &lt;mxCell id=&quot;sIUpnCS8GohBCDPYKKZ9-15&quot; value=&quot;&quot; style=&quot;edgeStyle=orthogonalEdgeStyle;html=1;endArrow=block;elbow=vertical;startArrow=none;endFill=1;strokeColor=#545B64;rounded=0;entryX=0;entryY=0.5;entryDx=0;entryDy=0;entryPerimeter=0;exitX=1;exitY=0.5;exitDx=0;exitDy=0;exitPerimeter=0;&quot; edge=&quot;1&quot; parent=&quot;1&quot; source=&quot;sIUpnCS8GohBCDPYKKZ9-1&quot; target=&quot;sIUpnCS8GohBCDPYKKZ9-5&quot;&gt;&#10;          &lt;mxGeometry width=&quot;100&quot; relative=&quot;1&quot; as=&quot;geometry&quot;&gt;&#10;            &lt;mxPoint x=&quot;420&quot; y=&quot;460&quot; as=&quot;sourcePoint&quot; /&gt;&#10;            &lt;mxPoint x=&quot;470&quot; y=&quot;450&quot; as=&quot;targetPoint&quot; /&gt;&#10;          &lt;/mxGeometry&gt;&#10;        &lt;/mxCell&gt;&#10;        &lt;mxCell id=&quot;sIUpnCS8GohBCDPYKKZ9-16&quot; value=&quot;&quot; style=&quot;edgeStyle=orthogonalEdgeStyle;html=1;endArrow=block;elbow=vertical;startArrow=none;endFill=1;strokeColor=#545B64;rounded=0;entryX=0;entryY=0.5;entryDx=0;entryDy=0;entryPerimeter=0;exitX=1;exitY=0.5;exitDx=0;exitDy=0;exitPerimeter=0;&quot; edge=&quot;1&quot; parent=&quot;1&quot; source=&quot;sIUpnCS8GohBCDPYKKZ9-1&quot; target=&quot;sIUpnCS8GohBCDPYKKZ9-3&quot;&gt;&#10;          &lt;mxGeometry width=&quot;100&quot; relative=&quot;1&quot; as=&quot;geometry&quot;&gt;&#10;            &lt;mxPoint x=&quot;370&quot; y=&quot;440&quot; as=&quot;sourcePoint&quot; /&gt;&#10;            &lt;mxPoint x=&quot;470&quot; y=&quot;450&quot; as=&quot;targetPoint&quot; /&gt;&#10;          &lt;/mxGeometry&gt;&#10;        &lt;/mxCell&gt;&#10;        &lt;mxCell id=&quot;sIUpnCS8GohBCDPYKKZ9-17&quot; value=&quot;&quot; style=&quot;edgeStyle=orthogonalEdgeStyle;html=1;endArrow=block;elbow=vertical;startArrow=none;endFill=1;strokeColor=#545B64;rounded=0;entryX=0;entryY=0.5;entryDx=0;entryDy=0;entryPerimeter=0;exitX=1;exitY=0.5;exitDx=0;exitDy=0;exitPerimeter=0;&quot; edge=&quot;1&quot; parent=&quot;1&quot; source=&quot;sIUpnCS8GohBCDPYKKZ9-1&quot; target=&quot;sIUpnCS8GohBCDPYKKZ9-4&quot;&gt;&#10;          &lt;mxGeometry width=&quot;100&quot; relative=&quot;1&quot; as=&quot;geometry&quot;&gt;&#10;            &lt;mxPoint x=&quot;390&quot; y=&quot;470&quot; as=&quot;sourcePoint&quot; /&gt;&#10;            &lt;mxPoint x=&quot;490&quot; y=&quot;470&quot; as=&quot;targetPoint&quot; /&gt;&#10;          &lt;/mxGeometry&gt;&#10;        &lt;/mxCell&gt;&#10;        &lt;mxCell id=&quot;sIUpnCS8GohBCDPYKKZ9-18&quot; value=&quot;&quot; style=&quot;edgeStyle=orthogonalEdgeStyle;html=1;endArrow=block;elbow=vertical;startArrow=none;endFill=1;strokeColor=#545B64;rounded=0;entryX=0.5;entryY=0;entryDx=0;entryDy=0;entryPerimeter=0;exitX=1;exitY=0.5;exitDx=0;exitDy=0;exitPerimeter=0;&quot; edge=&quot;1&quot; parent=&quot;1&quot; source=&quot;sIUpnCS8GohBCDPYKKZ9-2&quot; target=&quot;sIUpnCS8GohBCDPYKKZ9-6&quot;&gt;&#10;          &lt;mxGeometry width=&quot;100&quot; relative=&quot;1&quot; as=&quot;geometry&quot;&gt;&#10;            &lt;mxPoint x=&quot;450&quot; y=&quot;450&quot; as=&quot;sourcePoint&quot; /&gt;&#10;            &lt;mxPoint x=&quot;550&quot; y=&quot;450&quot; as=&quot;targetPoint&quot; /&gt;&#10;          &lt;/mxGeometry&gt;&#10;        &lt;/mxCell&gt;&#10;        &lt;mxCell id=&quot;sIUpnCS8GohBCDPYKKZ9-19&quot; value=&quot;&quot; style=&quot;edgeStyle=orthogonalEdgeStyle;html=1;endArrow=block;elbow=vertical;startArrow=none;endFill=1;strokeColor=#545B64;rounded=0;exitX=1;exitY=0.5;exitDx=0;exitDy=0;exitPerimeter=0;&quot; edge=&quot;1&quot; parent=&quot;1&quot; source=&quot;sIUpnCS8GohBCDPYKKZ9-5&quot; target=&quot;sIUpnCS8GohBCDPYKKZ9-6&quot;&gt;&#10;          &lt;mxGeometry width=&quot;100&quot; relative=&quot;1&quot; as=&quot;geometry&quot;&gt;&#10;            &lt;mxPoint x=&quot;560&quot; y=&quot;570&quot; as=&quot;sourcePoint&quot; /&gt;&#10;            &lt;mxPoint x=&quot;660&quot; y=&quot;570&quot; as=&quot;targetPoint&quot; /&gt;&#10;          &lt;/mxGeometry&gt;&#10;        &lt;/mxCell&gt;&#10;        &lt;mxCell id=&quot;sIUpnCS8GohBCDPYKKZ9-20&quot; value=&quot;&quot; style=&quot;edgeStyle=orthogonalEdgeStyle;html=1;endArrow=block;elbow=vertical;startArrow=none;endFill=1;strokeColor=#545B64;rounded=0;entryX=0;entryY=0.75;entryDx=0;entryDy=0;entryPerimeter=0;exitX=1;exitY=0.5;exitDx=0;exitDy=0;exitPerimeter=0;&quot; edge=&quot;1&quot; parent=&quot;1&quot; source=&quot;sIUpnCS8GohBCDPYKKZ9-4&quot; target=&quot;sIUpnCS8GohBCDPYKKZ9-6&quot;&gt;&#10;          &lt;mxGeometry width=&quot;100&quot; relative=&quot;1&quot; as=&quot;geometry&quot;&gt;&#10;            &lt;mxPoint x=&quot;560&quot; y=&quot;570&quot; as=&quot;sourcePoint&quot; /&gt;&#10;            &lt;mxPoint x=&quot;660&quot; y=&quot;570&quot; as=&quot;targetPoint&quot; /&gt;&#10;          &lt;/mxGeometry&gt;&#10;        &lt;/mxCell&gt;&#10;        &lt;mxCell id=&quot;sIUpnCS8GohBCDPYKKZ9-21&quot; value=&quot;&quot; style=&quot;edgeStyle=orthogonalEdgeStyle;html=1;endArrow=block;elbow=vertical;startArrow=none;endFill=1;strokeColor=#545B64;rounded=0;entryX=0;entryY=0.25;entryDx=0;entryDy=0;entryPerimeter=0;&quot; edge=&quot;1&quot; parent=&quot;1&quot; source=&quot;sIUpnCS8GohBCDPYKKZ9-3&quot; target=&quot;sIUpnCS8GohBCDPYKKZ9-6&quot;&gt;&#10;          &lt;mxGeometry width=&quot;100&quot; relative=&quot;1&quot; as=&quot;geometry&quot;&gt;&#10;            &lt;mxPoint x=&quot;560&quot; y=&quot;500&quot; as=&quot;sourcePoint&quot; /&gt;&#10;            &lt;mxPoint x=&quot;660&quot; y=&quot;500&quot; as=&quot;targetPoint&quot; /&gt;&#10;          &lt;/mxGeometry&gt;&#10;        &lt;/mxCell&gt;&#10;        &lt;mxCell id=&quot;sIUpnCS8GohBCDPYKKZ9-22&quot; value=&quot;&quot; style=&quot;edgeStyle=orthogonalEdgeStyle;html=1;endArrow=block;elbow=vertical;startArrow=block;startFill=1;endFill=1;strokeColor=#545B64;rounded=0;exitX=0.5;exitY=1;exitDx=0;exitDy=0;exitPerimeter=0;entryX=0.5;entryY=0;entryDx=0;entryDy=0;entryPerimeter=0;&quot; edge=&quot;1&quot; parent=&quot;1&quot; source=&quot;sIUpnCS8GohBCDPYKKZ9-7&quot; target=&quot;sIUpnCS8GohBCDPYKKZ9-1&quot;&gt;&#10;          &lt;mxGeometry width=&quot;100&quot; relative=&quot;1&quot; as=&quot;geometry&quot;&gt;&#10;            &lt;mxPoint x=&quot;239&quot; y=&quot;309.57&quot; as=&quot;sourcePoint&quot; /&gt;&#10;            &lt;mxPoint x=&quot;339&quot; y=&quot;309.57&quot; as=&quot;targetPoint&quot; /&gt;&#10;          &lt;/mxGeometry&gt;&#10;        &lt;/mxCell&gt;&#10;      &lt;/root&gt;&#10;    &lt;/mxGraphModel&gt;&#10;  &lt;/diagram&gt;&#10;&lt;/mxfile&gt;&#10;"><defs/><g><g data-cell-id="0"><g data-cell-id="1"><g data-cell-id="sIUpnCS8GohBCDPYKKZ9-1"><g><path d="M 170 300 L 248 300 L 248 378 L 170 378 Z" fill="#e7157b" stroke="none" pointer-events="all"/><path d="M 202.39 356.43 L 205.66 356.43 L 205.66 354.19 L 202.39 354.19 Z M 207.89 356.43 L 211.23 356.43 L 211.23 354.19 L 207.89 354.19 Z M 194.53 310.78 L 180.05 317.97 L 180.05 362.62 L 194.53 367.52 Z M 196.75 324.99 L 196.75 354.19 L 200.09 354.19 L 200.09 356.43 L 196.75 356.43 L 196.75 369.08 C 196.75 369.44 196.58 369.78 196.29 369.99 C 196.1 370.13 195.87 370.2 195.64 370.2 C 195.52 370.2 195.4 370.18 195.29 370.14 L 178.59 364.5 C 178.13 364.34 177.83 363.91 177.83 363.43 L 177.83 317.27 C 177.83 316.84 178.07 316.45 178.45 316.26 L 195.15 307.97 C 195.49 307.8 195.9 307.82 196.23 308.03 C 196.55 308.23 196.75 308.59 196.75 308.98 L 196.75 322.75 L 200.09 322.75 L 200.09 324.99 Z M 213.45 356.43 L 216.79 356.43 L 216.79 354.19 L 213.45 354.19 Z M 213.53 324.99 L 216.79 324.99 L 216.79 322.75 L 213.53 322.75 Z M 207.96 324.99 L 211.23 324.99 L 211.23 322.75 L 207.96 322.75 Z M 202.39 324.99 L 205.66 324.99 L 205.66 322.75 L 202.39 322.75 Z M 237.95 317.97 L 223.47 310.78 L 223.47 367.52 L 237.95 362.62 Z M 240.17 363.43 C 240.17 363.91 239.87 364.34 239.41 364.5 L 222.71 370.14 C 222.6 370.18 222.48 370.2 222.36 370.2 C 222.13 370.2 221.9 370.13 221.71 369.99 C 221.42 369.78 221.25 369.44 221.25 369.08 L 221.25 356.43 L 219.09 356.43 L 219.09 354.19 L 221.25 354.19 L 221.25 324.99 L 219.09 324.99 L 219.09 322.75 L 221.25 322.75 L 221.25 308.98 C 221.25 308.59 221.45 308.23 221.77 308.03 C 222.1 307.82 222.51 307.8 222.85 307.97 L 239.55 316.26 C 239.93 316.45 240.17 316.84 240.17 317.27 Z M 212.27 332.13 L 210.19 331.33 L 204.62 345.92 L 206.7 346.73 Z M 219.81 339.26 C 220.24 338.82 220.24 338.11 219.81 337.67 L 215.35 333.18 L 213.78 334.77 L 217.45 338.47 L 213.78 342.16 L 215.35 343.75 Z M 202.65 343.75 L 198.19 339.26 C 197.76 338.82 197.76 338.11 198.19 337.67 L 202.65 333.18 L 204.22 334.77 L 200.55 338.47 L 204.22 342.16 Z" fill="#ffffff" stroke="none" pointer-events="all"/></g></g><g data-cell-id="sIUpnCS8GohBCDPYKKZ9-2"><g><path d="M 440 60 L 518 60 L 518 138 L 440 138 Z" fill="#ed7100" stroke="none" pointer-events="all"/><path d="M 465.67 127.97 L 451.83 127.97 L 467.13 95.99 L 474.06 110.26 Z M 468.13 92.93 C 467.94 92.55 467.55 92.3 467.13 92.3 L 467.12 92.3 C 466.69 92.3 466.3 92.55 466.12 92.94 L 449.05 128.61 C 448.89 128.95 448.91 129.36 449.11 129.68 C 449.32 130 449.68 130.2 450.06 130.2 L 466.37 130.2 C 466.8 130.2 467.2 129.95 467.38 129.56 L 476.31 110.73 C 476.46 110.43 476.46 110.07 476.31 109.77 Z M 506.88 127.97 L 493.13 127.97 L 471.08 81.81 C 470.9 81.42 470.5 81.17 470.07 81.17 L 461.08 81.17 L 461.09 70.03 L 478.72 70.03 L 500.67 116.19 C 500.85 116.58 501.25 116.83 501.68 116.83 L 506.88 116.83 Z M 508 114.6 L 502.38 114.6 L 480.43 68.44 C 480.25 68.05 479.85 67.8 479.42 67.8 L 459.97 67.8 C 459.36 67.8 458.86 68.3 458.85 68.91 L 458.84 82.28 C 458.84 82.58 458.96 82.86 459.17 83.07 C 459.38 83.28 459.66 83.4 459.96 83.4 L 469.37 83.4 L 491.42 129.56 C 491.61 129.95 492 130.2 492.43 130.2 L 508 130.2 C 508.61 130.2 509.11 129.7 509.11 129.09 L 509.11 115.71 C 509.11 115.1 508.61 114.6 508 114.6 Z" fill="#ffffff" stroke="none" pointer-events="all"/></g></g><g data-cell-id="sIUpnCS8GohBCDPYKKZ9-3"><g><path d="M 440 220 L 518 220 L 518 298 L 440 298 Z" fill="#ed7100" stroke="none" pointer-events="all"/><path d="M 465.67 287.97 L 451.83 287.97 L 467.13 255.99 L 474.06 270.26 Z M 468.13 252.93 C 467.94 252.55 467.55 252.3 467.13 252.3 L 467.12 252.3 C 466.69 252.3 466.3 252.55 466.12 252.94 L 449.05 288.61 C 448.89 288.95 448.91 289.36 449.11 289.68 C 449.32 290 449.68 290.2 450.06 290.2 L 466.37 290.2 C 466.8 290.2 467.2 289.95 467.38 289.56 L 476.31 270.73 C 476.46 270.43 476.46 270.07 476.31 269.77 Z M 506.88 287.97 L 493.13 287.97 L 471.08 241.81 C 470.9 241.42 470.5 241.17 470.07 241.17 L 461.08 241.17 L 461.09 230.03 L 478.72 230.03 L 500.67 276.19 C 500.85 276.58 501.25 276.83 501.68 276.83 L 506.88 276.83 Z M 508 274.6 L 502.38 274.6 L 480.43 228.44 C 480.25 228.05 479.85 227.8 479.42 227.8 L 459.97 227.8 C 459.36 227.8 458.86 228.3 458.85 228.91 L 458.84 242.28 C 458.84 242.58 458.96 242.86 459.17 243.07 C 459.38 243.28 459.66 243.4 459.96 243.4 L 469.37 243.4 L 491.42 289.56 C 491.61 289.95 492 290.2 492.43 290.2 L 508 290.2 C 508.61 290.2 509.11 289.7 509.11 289.09 L 509.11 275.71 C 509.11 275.1 508.61 274.6 508 274.6 Z" fill="#ffffff" stroke="none" pointer-events="all"/></g></g><g data-cell-id="sIUpnCS8GohBCDPYKKZ9-4"><g><path d="M 440 380 L 518 380 L 518 458 L 440 458 Z" fill="#ed7100" stroke="none" pointer-events="all"/><path d="M 465.67 447.97 L 451.83 447.97 L 467.13 415.99 L 474.06 430.26 Z M 468.13 412.93 C 467.94 412.55 467.55 412.3 467.13 412.3 L 467.12 412.3 C 466.69 412.3 466.3 412.55 466.12 412.94 L 449.05 448.61 C 448.89 448.95 448.91 449.36 449.11 449.68 C 449.32 450 449.68 450.2 450.06 450.2 L 466.37 450.2 C 466.8 450.2 467.2 449.95 467.38 449.56 L 476.31 430.73 C 476.46 430.43 476.46 430.07 476.31 429.77 Z M 506.88 447.97 L 493.13 447.97 L 471.08 401.81 C 470.9 401.42 470.5 401.17 470.07 401.17 L 461.08 401.17 L 461.09 390.03 L 478.72 390.03 L 500.67 436.19 C 500.85 436.58 501.25 436.83 501.68 436.83 L 506.88 436.83 Z M 508 434.6 L 502.38 434.6 L 480.43 388.44 C 480.25 388.05 479.85 387.8 479.42 387.8 L 459.97 387.8 C 459.36 387.8 458.86 388.3 458.85 388.91 L 458.84 402.28 C 458.84 402.58 458.96 402.86 459.17 403.07 C 459.38 403.28 459.66 403.4 459.96 403.4 L 469.37 403.4 L 491.42 449.56 C 491.61 449.95 492 450.2 492.43 450.2 L 508 450.2 C 508.61 450.2 509.11 449.7 509.11 449.09 L 509.11 435.71 C 509.11 435.1 508.61 434.6 508 434.6 Z" fill="#ffffff" stroke="none" pointer-events="all"/></g></g><g data-cell-id="sIUpnCS8GohBCDPYKKZ9-5"><g><path d="M 440 540 L 518 540 L 518 618 L 440 618 Z" fill="#ed7100" stroke="none" pointer-events="all"/><path d="M 465.67 607.97 L 451.83 607.97 L 467.13 575.99 L 474.06 590.26 Z M 468.13 572.93 C 467.94 572.55 467.55 572.3 467.13 572.3 L 467.12 572.3 C 466.69 572.3 466.3 572.55 466.12 572.94 L 449.05 608.61 C 448.89 608.95 448.91 609.36 449.11 609.68 C 449.32 610 449.68 610.2 450.06 610.2 L 466.37 610.2 C 466.8 610.2 467.2 609.95 467.38 609.56 L 476.31 590.73 C 476.46 590.43 476.46 590.07 476.31 589.77 Z M 506.88 607.97 L 493.13 607.97 L 471.08 561.81 C 470.9 561.42 470.5 561.17 470.07 561.17 L 461.08 561.17 L 461.09 550.03 L 478.72 550.03 L 500.67 596.19 C 500.85 596.58 501.25 596.83 501.68 596.83 L 506.88 596.83 Z M 508 594.6 L 502.38 594.6 L 480.43 548.44 C 480.25 548.05 479.85 547.8 479.42 547.8 L 459.97 547.8 C 459.36 547.8 458.86 548.3 458.85 548.91 L 458.84 562.28 C 458.84 562.58 458.96 562.86 459.17 563.07 C 459.38 563.28 459.66 563.4 459.96 563.4 L 469.37 563.4 L 491.42 609.56 C 491.61 609.95 492 610.2 492.43 610.2 L 508 610.2 C 508.61 610.2 509.11 609.7 509.11 609.09 L 509.11 595.71 C 509.11 595.1 508.61 594.6 508 594.6 Z" fill="#ffffff" stroke="none" pointer-events="all"/></g></g><g data-cell-id="sIUpnCS8GohBCDPYKKZ9-6"><g><path d="M 630 302 L 708 302 L 708 380 L 630 380 Z" fill="#c925d1" stroke="none" pointer-events="all"/><path d="M 682.42 357.55 C 678.7 360.55 670.9 362.14 663.43 362.14 C 655.97 362.14 648.16 360.55 644.44 357.55 L 644.44 363.6 L 644.44 363.6 C 644.44 366.62 652.24 369.99 663.43 369.99 C 674.62 369.99 682.41 366.63 682.42 363.61 Z M 682.43 346.04 L 684.65 346.03 L 684.65 346.04 C 684.65 347.38 683.98 348.64 682.67 349.79 C 684.26 351.19 684.65 352.57 684.65 353.54 C 684.65 353.55 684.65 353.56 684.65 353.56 L 684.65 363.6 L 684.65 363.6 C 684.65 369.19 673.72 372.2 663.43 372.2 C 653.17 372.2 642.27 369.2 642.22 363.64 C 642.22 363.64 642.21 363.63 642.21 363.62 L 642.21 353.54 C 642.21 353.54 642.22 353.54 642.22 353.53 C 642.22 352.55 642.62 351.19 644.21 349.79 C 642.63 348.39 642.23 347.03 642.22 346.06 L 642.22 346.06 C 642.22 346.06 642.21 346.06 642.21 346.05 L 642.21 335.97 C 642.21 335.96 642.22 335.96 642.22 335.96 C 642.22 334.98 642.62 333.61 644.21 332.22 C 642.63 330.82 642.23 329.46 642.22 328.49 L 642.22 328.49 C 642.22 328.49 642.21 328.48 642.21 328.48 L 642.21 318.39 C 642.21 318.39 642.22 318.39 642.22 318.38 C 642.24 312.81 653.16 309.8 663.43 309.8 C 669.24 309.8 674.82 310.72 678.74 312.33 L 677.89 314.37 C 674.23 312.87 668.96 312.01 663.43 312.01 C 652.24 312.01 644.44 315.38 644.44 318.4 C 644.44 321.42 652.24 324.79 663.43 324.79 C 663.74 324.79 664.03 324.79 664.33 324.78 L 664.42 326.98 C 664.09 327 663.76 327 663.43 327 C 655.97 327 648.16 325.41 644.44 322.4 L 644.44 328.45 L 644.44 328.45 L 644.44 328.48 C 644.46 329.64 645.64 330.65 646.64 331.29 C 649.64 333.2 655.01 334.51 661 334.78 L 660.9 336.99 C 654.83 336.71 649.52 335.45 646.1 333.53 C 645.25 334.15 644.44 335.01 644.44 335.97 C 644.44 338.99 652.24 342.36 663.43 342.36 C 664.53 342.36 665.62 342.32 666.68 342.25 L 666.83 344.46 C 665.73 344.53 664.58 344.57 663.43 344.57 C 655.97 344.57 648.16 342.98 644.44 339.97 L 644.44 346.03 L 644.44 346.03 C 644.46 347.21 645.64 348.22 646.64 348.87 C 650.07 351.05 656.5 352.42 663.43 352.42 L 663.92 352.42 L 663.92 354.63 L 663.43 354.63 C 656.39 354.63 649.99 353.32 646.08 351.11 C 645.24 351.74 644.44 352.59 644.44 353.54 C 644.44 356.57 652.24 359.93 663.43 359.93 C 674.62 359.93 682.41 356.57 682.42 353.55 L 682.42 353.54 L 682.42 353.54 C 682.42 352.58 681.62 351.73 680.78 351.1 C 680.24 351.41 679.65 351.71 678.99 351.98 L 678.14 349.94 C 678.95 349.61 679.65 349.25 680.22 348.87 C 681.23 348.21 682.43 347.19 682.43 346.04 Z M 691.97 329.88 L 685.73 329.88 C 685.36 329.88 685.01 329.69 684.8 329.39 C 684.6 329.09 684.55 328.7 684.69 328.36 L 688.49 318.87 L 674.1 318.87 L 667.42 332.13 L 674.53 332.13 C 674.89 332.13 675.22 332.3 675.43 332.58 C 675.64 332.87 675.7 333.23 675.59 333.57 L 669.24 353.36 Z M 695.39 329.54 L 667.53 358.32 C 667.32 358.54 667.02 358.65 666.73 358.65 C 666.53 358.65 666.34 358.6 666.16 358.5 C 665.71 358.24 665.51 357.71 665.67 357.22 L 673.01 334.34 L 665.62 334.34 C 665.23 334.34 664.87 334.14 664.67 333.82 C 664.46 333.49 664.45 333.08 664.62 332.74 L 672.42 317.27 C 672.61 316.89 672.99 316.66 673.42 316.66 L 690.13 316.66 C 690.5 316.66 690.85 316.84 691.05 317.14 C 691.26 317.45 691.3 317.83 691.17 318.17 L 687.37 327.67 L 694.59 327.67 C 695.03 327.67 695.44 327.93 695.61 328.34 C 695.79 328.75 695.7 329.22 695.39 329.54 Z M 646.06 364.04 C 647.64 364.93 649.63 365.67 651.97 366.26 L 652.52 364.11 C 650.4 363.59 648.55 362.9 647.17 362.12 Z M 651.97 348.58 L 652.52 346.43 C 650.4 345.9 648.55 345.21 647.17 344.43 L 646.06 346.35 C 647.64 347.24 649.63 347.99 651.97 348.58 Z M 646.06 328.67 L 647.17 326.75 C 648.55 327.53 650.4 328.22 652.52 328.75 L 651.97 330.89 C 649.63 330.31 647.64 329.56 646.06 328.67 Z" fill="#ffffff" stroke="none" pointer-events="all"/></g></g><g data-cell-id="sIUpnCS8GohBCDPYKKZ9-7"><g><path d="M 170 30 L 248 30 L 248 108 L 170 108 Z" fill="#dd344c" stroke="none" pointer-events="all"/><path d="M 183.31 64.34 L 197.64 64.34 L 197.64 62.14 L 183.31 62.14 Z M 232.63 80.36 L 234.19 81.92 L 226 90.09 C 225.79 90.31 225.51 90.41 225.22 90.41 C 224.94 90.41 224.66 90.31 224.45 90.09 L 220.33 85.98 L 221.89 84.42 L 225.22 87.76 Z M 237.7 86.43 C 237.45 88.5 236.61 90.42 235.26 92 C 234.31 93.12 233.1 94.04 231.77 94.67 C 229.99 95.51 228.02 95.83 226.05 95.59 C 224.13 95.36 222.33 94.61 220.82 93.41 C 217.93 91.12 216.47 87.56 216.91 83.89 C 217.33 80.42 219.43 77.4 222.53 75.8 C 224.01 75.04 225.64 74.65 227.29 74.65 C 227.72 74.65 228.15 74.67 228.57 74.72 C 232.03 75.15 235.05 77.26 236.64 80.37 C 237.59 82.24 237.96 84.34 237.7 86.43 Z M 238.6 79.38 C 236.68 75.61 233.03 73.05 228.84 72.54 C 226.31 72.23 223.78 72.68 221.52 73.85 C 217.77 75.78 215.23 79.44 214.73 83.63 C 214.19 88.06 215.95 92.36 219.45 95.14 C 221.27 96.58 223.46 97.5 225.78 97.78 C 226.29 97.84 226.81 97.87 227.32 97.87 C 229.18 97.87 231.03 97.46 232.72 96.66 C 234.33 95.9 235.79 94.78 236.94 93.43 C 238.57 91.52 239.59 89.19 239.89 86.69 C 240.2 84.17 239.75 81.64 238.6 79.38 Z M 194.34 70.95 L 198.75 70.95 L 198.75 68.75 L 194.34 68.75 Z M 183.31 70.95 L 192.13 70.95 L 192.13 68.75 L 183.31 68.75 Z M 182.36 42.33 L 231.67 42.33 C 232.97 42.33 234.02 43.61 234.02 45.19 L 234.02 53.34 L 230.72 53.34 L 230.72 47.83 C 230.72 47.23 230.22 46.73 229.61 46.73 L 204.26 46.73 C 203.65 46.73 203.15 47.23 203.15 47.83 L 203.15 53.34 L 180 53.34 L 180 45.19 C 180 43.64 181.08 42.33 182.36 42.33 Z M 216.95 53.02 C 219.51 53.02 221.59 55.08 221.59 57.61 C 221.59 59.27 220.67 60.81 219.19 61.61 C 217.79 62.37 216.09 62.36 214.7 61.61 C 213.23 60.81 212.31 59.27 212.31 57.61 C 212.31 55.08 214.39 53.02 216.95 53.02 Z M 180 76.89 L 180 55.54 L 203.15 55.54 L 203.15 74.25 C 203.15 74.86 203.65 75.35 204.26 75.35 L 215.78 75.35 L 215.78 73.15 L 206.58 73.15 C 206.67 68.75 209.6 64.94 213.82 63.73 C 215.77 64.64 218.09 64.64 220.07 63.72 C 222.47 64.42 224.58 66.02 225.88 68.17 L 227.76 67.03 C 226.43 64.83 224.4 63.11 222.05 62.11 C 223.15 60.89 223.8 59.3 223.8 57.61 C 223.8 53.86 220.73 50.82 216.95 50.82 C 213.18 50.82 210.1 53.86 210.1 57.61 C 210.1 59.29 210.75 60.87 211.84 62.1 C 208.89 63.34 206.59 65.66 205.36 68.53 L 205.36 48.93 L 228.51 48.93 L 228.51 66.55 L 230.72 66.55 L 230.72 55.54 L 234.02 55.54 L 234.02 72.05 L 236.23 72.05 L 236.23 45.19 C 236.23 42.4 234.18 40.13 231.67 40.13 L 182.36 40.13 C 179.84 40.13 177.8 42.4 177.8 45.19 L 177.8 76.89 C 177.8 79.69 179.84 81.96 182.36 81.96 L 211.97 81.96 L 211.97 79.76 L 182.36 79.76 C 181.08 79.76 180 78.45 180 76.89 Z" fill="#ffffff" stroke="none" pointer-events="all"/></g></g><g data-cell-id="sIUpnCS8GohBCDPYKKZ9-8"><g><path d="M 41.37 150.05 C 40.64 150.09 39.91 150.27 39.27 150.59 L 10.62 164.25 C 9.11 164.99 8.02 166.36 7.65 167.96 L 0.57 198.7 C 0.25 200.12 0.52 201.63 1.3 202.86 C 1.44 203 1.53 203.14 1.62 203.32 L 21.45 227.94 C 22.5 229.22 24.1 230 25.74 230 L 57.54 230 C 59.19 230 60.79 229.22 61.84 227.94 L 81.67 203.27 C 82.67 201.99 83.08 200.3 82.72 198.7 L 75.63 167.96 C 75.27 166.36 74.17 164.99 72.66 164.25 L 44.02 150.59 C 43.2 150.18 42.28 150 41.37 150.05 Z" fill="#ffffff" stroke="none" pointer-events="all"/><path d="M 41.39 152.44 C 40.7 152.49 40.01 152.66 39.41 152.96 L 12.48 165.8 C 11.07 166.49 10.03 167.77 9.69 169.28 L 3.03 198.18 C 2.73 199.51 2.99 200.93 3.72 202.09 C 3.85 202.22 3.94 202.35 4.02 202.52 L 22.66 225.67 C 23.65 226.87 25.15 227.6 26.7 227.6 L 56.59 227.6 C 58.14 227.6 59.64 226.87 60.63 225.67 L 79.26 202.48 C 80.21 201.27 80.6 199.68 80.25 198.18 L 73.6 169.28 C 73.25 167.77 72.22 166.49 70.8 165.8 L 43.88 152.96 C 43.1 152.57 42.24 152.4 41.39 152.44 Z" fill="#2875e2" stroke="none" pointer-events="all"/><path d="M 22.04 167.02 C 19.62 167.02 17.66 168.97 17.66 171.4 L 17.66 208.6 C 17.66 211.03 19.62 212.98 22.04 212.98 L 61.29 212.98 C 63.71 212.98 65.66 211.03 65.66 208.6 L 65.66 171.4 C 65.66 168.97 63.71 167.02 61.29 167.02 Z M 41.67 174.28 C 45.4 174.28 48.38 177.29 48.38 181.02 C 48.38 184.75 45.39 187.76 41.67 187.76 C 37.94 187.76 34.93 184.75 34.93 181.02 C 34.93 177.29 37.93 174.28 41.66 174.28 Z M 41.67 192.24 C 46.9 192.24 57.38 194.87 57.38 200.1 L 57.38 205.72 L 25.95 205.72 L 25.95 200.1 C 25.95 194.87 36.43 192.24 41.67 192.24 Z" fill="#ffffff" stroke="none" pointer-events="all"/></g></g><g data-cell-id="sIUpnCS8GohBCDPYKKZ9-9"><g><path d="M 170 490 L 248 490 L 248 568 L 170 568 Z" fill="#7aa116" stroke="none" pointer-events="all"/><path d="M 232.28 532.22 L 232.71 529.21 C 236.66 531.57 236.71 532.55 236.71 532.58 C 236.7 532.58 236.03 533.14 232.28 532.22 Z M 230.12 531.62 C 223.3 529.56 213.8 525.2 209.96 523.39 C 209.96 523.37 209.96 523.36 209.96 523.34 C 209.96 521.86 208.76 520.66 207.28 520.66 C 205.81 520.66 204.61 521.86 204.61 523.34 C 204.61 524.82 205.81 526.02 207.28 526.02 C 207.93 526.02 208.52 525.78 208.98 525.39 C 213.51 527.53 222.93 531.82 229.8 533.85 L 227.08 553.03 C 227.07 553.08 227.07 553.13 227.07 553.18 C 227.07 554.87 219.6 557.97 207.39 557.97 C 195.05 557.97 187.49 554.87 187.49 553.18 C 187.49 553.13 187.49 553.08 187.48 553.03 L 181.81 511.57 C 186.72 514.95 197.29 516.74 207.39 516.74 C 217.48 516.74 228.03 514.96 232.96 511.59 Z M 181.21 507.25 C 181.29 505.78 189.71 500.03 207.39 500.03 C 225.07 500.03 233.5 505.78 233.58 507.25 L 233.58 507.75 C 232.61 511.04 221.69 514.51 207.39 514.51 C 193.07 514.51 182.15 511.02 181.21 507.73 Z M 235.81 507.27 C 235.81 503.41 224.74 497.8 207.39 497.8 C 190.05 497.8 178.98 503.41 178.98 507.27 L 179.08 508.11 L 185.27 553.27 C 185.41 558.32 198.88 560.2 207.39 560.2 C 217.94 560.2 229.15 557.77 229.3 553.27 L 231.97 534.44 C 233.45 534.8 234.68 534.98 235.66 534.98 C 236.98 534.98 237.87 534.66 238.41 534.01 C 238.85 533.49 239.02 532.85 238.89 532.16 C 238.61 530.62 236.77 528.96 233.05 526.83 L 235.69 508.16 Z" fill="#ffffff" stroke="none" pointer-events="all"/></g></g><g data-cell-id="sIUpnCS8GohBCDPYKKZ9-10"><g><rect x="50" y="0" width="62.4" height="40" fill="none" stroke="none" pointer-events="all"/><path d="M 68.23 33.88 C 73.94 33.88 78.97 30.45 81.06 25.24 L 103.36 25.24 C 103.77 25.24 104.16 25.06 104.43 24.74 L 107.67 20.96 C 108.18 20.37 108.11 19.49 107.53 18.97 L 103.21 15.19 C 102.95 14.96 102.62 14.84 102.28 14.84 L 99.62 14.84 L 96.79 12.01 C 96.24 11.46 95.34 11.46 94.79 12.01 L 91.96 14.84 L 90.97 14.84 L 88.15 12.01 C 87.59 11.46 86.7 11.46 86.14 12.01 L 83.32 14.84 L 81.06 14.84 C 78.97 9.63 73.94 6.19 68.23 6.19 C 60.6 6.19 54.39 12.41 54.39 20.04 C 54.39 27.67 60.6 33.88 68.23 33.88 Z M 68.23 9.03 C 73.05 9.03 77.27 12.1 78.72 16.68 C 78.9 17.27 79.45 17.67 80.07 17.67 L 83.9 17.67 C 84.28 17.67 84.64 17.52 84.9 17.26 L 87.15 15.02 L 89.39 17.26 C 89.65 17.52 90.01 17.67 90.39 17.67 L 92.55 17.67 C 92.92 17.67 93.28 17.52 93.55 17.26 L 95.79 15.02 L 98.03 17.26 C 98.3 17.52 98.66 17.67 99.03 17.67 L 101.74 17.67 L 104.61 20.18 L 102.71 22.41 L 80.07 22.41 C 79.45 22.41 78.9 22.81 78.72 23.39 C 77.27 27.97 73.05 31.05 68.23 31.05 C 62.16 31.05 57.22 26.11 57.22 20.04 C 57.22 13.97 62.16 9.03 68.23 9.03 Z M 64.45 25.24 C 67.32 25.24 69.65 22.91 69.65 20.04 C 69.65 17.17 67.32 14.84 64.45 14.84 C 61.58 14.84 59.25 17.17 59.25 20.04 C 59.25 22.91 61.58 25.24 64.45 25.24 Z M 64.45 17.67 C 65.75 17.67 66.82 18.73 66.82 20.04 C 66.82 21.34 65.75 22.41 64.45 22.41 C 63.14 22.41 62.08 21.34 62.08 20.04 C 62.08 18.73 63.14 17.67 64.45 17.67 Z M 110.93 0 L 51.47 0 C 50.68 0 50.05 0.63 50.05 1.42 L 50.05 38.58 C 50.05 39.37 50.68 40 51.47 40 L 110.93 40 C 111.72 40 112.35 39.37 112.35 38.58 L 112.35 1.42 C 112.35 0.63 111.72 0 110.93 0 Z M 52.88 37.17 L 52.88 2.83 L 109.52 2.83 L 109.52 37.17 Z" fill="#dd344c" stroke="none" pointer-events="all"/></g></g><g data-cell-id="sIUpnCS8GohBCDPYKKZ9-11"><g><path d="M 41.66 150 L 41.7 69.04 L 167.76 69" fill="none" stroke="#545b64" stroke-miterlimit="10" pointer-events="stroke"/><path d="M 161.88 72.5 L 168.88 69 L 161.88 65.5" fill="none" stroke="#545b64" stroke-miterlimit="10" pointer-events="all"/></g></g><g data-cell-id="sIUpnCS8GohBCDPYKKZ9-12"><g><path d="M 41.66 230 L 41.7 339.04 L 161.88 339" fill="none" stroke="#545b64" stroke-miterlimit="10" pointer-events="stroke"/><path d="M 168.88 339 L 161.88 342.5 L 161.88 335.5 Z" fill="#545b64" stroke="#545b64" stroke-miterlimit="10" pointer-events="all"/></g></g><g data-cell-id="sIUpnCS8GohBCDPYKKZ9-13"><g><path d="M 209 378 L 209 481.88" fill="none" stroke="#545b64" stroke-miterlimit="10" pointer-events="stroke"/><path d="M 209 488.88 L 205.5 481.88 L 212.5 481.88 Z" fill="#545b64" stroke="#545b64" stroke-miterlimit="10" pointer-events="all"/></g></g><g data-cell-id="sIUpnCS8GohBCDPYKKZ9-14"><g><path d="M 248 339 L 344.04 339.04 L 344.04 99.04 L 431.88 99" fill="none" stroke="#545b64" stroke-miterlimit="10" pointer-events="stroke"/><path d="M 438.88 99 L 431.88 102.5 L 431.88 95.5 Z" fill="#545b64" stroke="#545b64" stroke-miterlimit="10" pointer-events="all"/></g></g><g data-cell-id="sIUpnCS8GohBCDPYKKZ9-15"><g><path d="M 248 339 L 344.04 339.04 L 344.04 579.04 L 431.88 579" fill="none" stroke="#545b64" stroke-miterlimit="10" pointer-events="stroke"/><path d="M 438.88 579 L 431.88 582.5 L 431.88 575.5 Z" fill="#545b64" stroke="#545b64" stroke-miterlimit="10" pointer-events="all"/></g></g><g data-cell-id="sIUpnCS8GohBCDPYKKZ9-16"><g><path d="M 248 339 L 344.04 339.04 L 344.04 259.04 L 431.88 259" fill="none" stroke="#545b64" stroke-miterlimit="10" pointer-events="stroke"/><path d="M 438.88 259 L 431.88 262.5 L 431.88 255.5 Z" fill="#545b64" stroke="#545b64" stroke-miterlimit="10" pointer-events="all"/></g></g><g data-cell-id="sIUpnCS8GohBCDPYKKZ9-17"><g><path d="M 248 339 L 344.04 339.04 L 344.04 419.04 L 431.88 419" fill="none" stroke="#545b64" stroke-miterlimit="10" pointer-events="stroke"/><path d="M 438.88 419 L 431.88 422.5 L 431.88 415.5 Z" fill="#545b64" stroke="#545b64" stroke-miterlimit="10" pointer-events="all"/></g></g><g data-cell-id="sIUpnCS8GohBCDPYKKZ9-18"><g><path d="M 518 99 L 669 99.04 L 669 293.88" fill="none" stroke="#545b64" stroke-miterlimit="10" pointer-events="stroke"/><path d="M 669 300.88 L 665.5 293.88 L 672.5 293.88 Z" fill="#545b64" stroke="#545b64" stroke-miterlimit="10" pointer-events="all"/></g></g><g data-cell-id="sIUpnCS8GohBCDPYKKZ9-19"><g><path d="M 518 579 L 669 579.04 L 669 388.12" fill="none" stroke="#545b64" stroke-miterlimit="10" pointer-events="stroke"/><path d="M 669 381.12 L 672.5 388.12 L 665.5 388.12 Z" fill="#545b64" stroke="#545b64" stroke-miterlimit="10" pointer-events="all"/></g></g><g data-cell-id="sIUpnCS8GohBCDPYKKZ9-20"><g><path d="M 518 419 L 574.04 419.04 L 574.04 360.52 L 621.88 360.5" fill="none" stroke="#545b64" stroke-miterlimit="10" pointer-events="stroke"/><path d="M 628.88 360.5 L 621.88 364 L 621.88 357 Z" fill="#545b64" stroke="#545b64" stroke-miterlimit="10" pointer-events="all"/></g></g><g data-cell-id="sIUpnCS8GohBCDPYKKZ9-21"><g><path d="M 518 259.04 L 574.04 259.04 L 574.04 321.48 L 621.88 321.5" fill="none" stroke="#545b64" stroke-miterlimit="10" pointer-events="stroke"/><path d="M 628.88 321.5 L 621.88 325 L 621.88 318 Z" fill="#545b64" stroke="#545b64" stroke-miterlimit="10" pointer-events="all"/></g></g><g data-cell-id="sIUpnCS8GohBCDPYKKZ9-22"><g><path d="M 209 116.12 L 209 291.88" fill="none" stroke="#545b64" stroke-miterlimit="10" pointer-events="stroke"/><path d="M 209 109.12 L 212.5 116.12 L 205.5 116.12 Z" fill="#545b64" stroke="#545b64" stroke-miterlimit="10" pointer-events="all"/><path d="M 209 298.88 L 205.5 291.88 L 212.5 291.88 Z" fill="#545b64" stroke="#545b64" stroke-miterlimit="10" pointer-events="all"/></g></g></g></g></g></svg>